<svg width="800" height="800" version="1.1" xmlns="http://www.w3.org/2000/svg" desc="Created with imagetracer.js version 1.2.6" ><path fill="rgb(0,0,0)" stroke="rgb(0,0,0)" stroke-width="1" opacity="0.9803921568627451" d="M 129 73 L 152.5 74 L 181.5 81 Q 201.8 88.7 214 104.5 Q 230.4 125.1 237 155.5 L 240 172.5 L 240 179.5 L 241 180.5 L 244 235.5 L 245 236.5 L 247 257.5 L 251 275.5 Q 258.7 299.3 276.5 313 Q 290.6 325.9 311.5 332 L 336.5 337 L 364 338 L 364 146.5 L 363 145.5 L 363 135.5 L 360 121.5 Q 356.2 111.8 348.5 106 Q 339.8 99.2 327.5 96 L 317.5 94 L 309.5 94 L 308.5 93 Q 295.5 94.3 288 92 L 288 79.5 L 288.5 79 L 512 79 L 512 91.5 L 508.5 92 L 507.5 93 L 482.5 94 L 463.5 99 Q 450.6 104.1 443 114.5 L 439 123.5 L 437 134.5 L 437 144.5 L 436 145.5 L 436 338 L 463.5 337 L 464.5 336 L 476.5 335 L 494.5 330 Q 517.8 320.8 533 303.5 Q 541 294.5 546 282.5 L 552 261.5 L 554 243.5 L 555 242.5 L 555 235.5 L 556 234.5 L 556 225.5 L 557 224.5 L 559 180.5 L 560 179.5 L 562 159.5 L 566 143.5 Q 573.9 114.9 592.5 97 Q 607.5 83 630.5 77 L 645.5 74 L 653.5 74 L 654.5 73 L 671 73 L 671 87 L 666.5 87 L 658.5 89 L 647 96.5 L 641 105.5 L 637 122.5 L 636 142.5 L 635 143.5 L 634 206.5 L 633 207.5 L 633 217.5 L 632 218.5 L 631 233.5 L 625 262.5 Q 615.4 297.4 591.5 318 Q 564.4 342.4 524.5 354 L 486.5 362 L 470.5 363 L 469.5 364 L 458.5 364 L 457.5 365 L 436 365 L 436 514.5 L 437 515.5 L 438 531.5 L 441 541.5 L 450.5 553 Q 459.3 560.7 472.5 564 L 482.5 566 L 489.5 566 L 490.5 567 L 510.5 567 L 512 568.5 L 512 580.5 L 511.5 581 L 288 581 L 288 568.5 L 289.5 567 L 307.5 567 L 308.5 566 L 316.5 566 L 327.5 564 Q 346 559.5 356 546.5 L 360 538.5 L 362 530.5 L 363 513.5 L 364 512.5 L 364 365 L 342.5 365 L 341.5 364 L 320.5 363 L 319.5 362 L 295.5 359 L 271.5 353 Q 230 340 203 312.5 L 187 291.5 L 180 277.5 L 172 250.5 L 169 234.5 L 168 219.5 L 167 218.5 L 167 207.5 L 166 206.5 L 165 143.5 L 164 142.5 L 163 122.5 L 159 106.5 Q 155.8 97.8 148.5 93 Q 140.9 87.2 129 87 L 129 73 Z " /><path fill="rgb(0,0,0)" stroke="rgb(0,0,0)" stroke-width="1" opacity="0" d="M 0 0 L 800 0 L 800 800 L 0 800 L 0 0 Z M 129 73 L 129 87 Q 141 87 149 93 Q 156 98 159 107 L 163 123 L 164 143 L 165 144 L 166 207 L 167 208 L 167 219 L 168 220 L 169 235 L 172 251 L 180 278 L 187 292 L 203 313 Q 230 340 272 353 L 296 359 L 320 362 L 321 363 L 342 364 L 343 365 L 364 365 L 364 513 L 363 514 L 362 531 L 360 539 L 356 547 Q 346 560 328 564 L 317 566 L 309 566 L 308 567 L 290 567 L 288 569 L 288 581 L 512 581 L 512 581 L 512 569 L 511 567 L 491 567 L 490 566 L 483 566 L 473 564 Q 459 561 451 553 L 441 542 L 438 532 L 437 516 L 436 515 L 436 365 L 458 365 L 459 364 L 470 364 L 471 363 L 487 362 L 525 354 Q 564 342 592 318 Q 615 297 625 263 L 631 234 L 632 219 L 633 218 L 633 208 L 634 207 L 635 144 L 636 143 L 637 123 L 641 106 L 647 97 L 659 89 L 667 87 L 671 87 L 671 73 L 655 73 L 654 74 L 646 74 L 631 77 Q 608 83 593 97 Q 574 115 566 144 L 562 160 L 560 180 L 559 181 L 557 225 L 556 226 L 556 235 L 555 236 L 555 243 L 554 244 L 552 262 L 546 283 Q 541 294 533 304 Q 518 321 495 330 L 477 335 L 465 336 L 464 337 L 436 338 L 436 146 L 437 145 L 437 135 L 439 124 L 443 115 Q 451 104 464 99 L 483 94 L 508 93 L 509 92 L 512 92 L 512 79 L 289 79 L 288 80 L 288 92 Q 296 94 309 93 L 310 94 L 318 94 L 328 96 Q 340 99 349 106 Q 356 112 360 122 L 363 136 L 363 146 L 364 147 L 364 338 L 337 337 L 312 332 Q 291 326 277 313 Q 259 299 251 276 L 247 258 L 245 237 L 244 236 L 241 181 L 240 180 L 240 173 L 237 156 Q 230 125 214 105 Q 202 89 182 81 L 153 74 L 129 73 Z " /></svg>