<svg width="1080" height="1080" version="1.1" xmlns="http://www.w3.org/2000/svg" desc="Created with imagetracer.js version 1.2.6" ><path fill="rgb(254,254,254)" stroke="rgb(254,254,254)" stroke-width="1" opacity="0.9490196078431372" d="M 395.5 171 L 682 171.5 L 395.5 172 L 395.5 171 Z " /><path fill="rgb(254,254,254)" stroke="rgb(254,254,254)" stroke-width="1" opacity="0.9490196078431372" d="M 804.5 171 L 900 171.5 L 804.5 172 L 804.5 171 Z " /><path fill="rgb(254,254,254)" stroke="rgb(254,254,254)" stroke-width="1" opacity="0.9490196078431372" d="M 181.5 172 L 274 172.5 L 181.5 173 L 181.5 172 Z " /><path fill="rgb(254,254,254)" stroke="rgb(254,254,254)" stroke-width="1" opacity="0.9490196078431372" d="M 789.5 172 L 799 172.5 L 789.5 173 L 789.5 172 Z " /><path fill="rgb(254,254,254)" stroke="rgb(254,254,254)" stroke-width="1" opacity="0.9490196078431372" d="M 279.5 173 L 288 173.5 L 279.5 174 L 279.5 173 Z " /><path fill="rgb(254,254,254)" stroke="rgb(254,254,254)" stroke-width="1" opacity="0.9490196078431372" d="M 394 173 L 682.5 173 L 683 173.5 L 683 202 L 656.5 202 L 655.5 203 L 644 203.5 L 654 204.5 L 644.5 205 L 643.5 204 L 635.5 204 L 629 205.5 L 635 206.5 L 629.5 207 L 624.5 206 L 624.5 207 L 628 207.5 L 624.5 208 L 619.5 207 L 619.5 208 L 623 208.5 L 612.5 211 L 609.5 210 L 609.5 211 L 611 211.5 L 609.5 212 L 606.5 211 L 606.5 212 L 608 212.5 L 604.5 214 L 601.5 213 L 600.5 216 L 598.5 215 L 597.5 218 Q 590 221 586 227.5 Q 578.8 237.3 576.5 252 L 575.5 248 L 575 252.5 Q 577.5 254 576 259.5 L 575 259.5 L 574.5 253 L 573 261.5 L 573 691 L 589 689.5 L 582 688.5 L 588.5 688 Q 590 690.5 595.5 689 L 595.5 688 L 590 687.5 L 595.5 687 Q 597 689.5 602.5 688 L 608 686.5 L 603 685.5 L 616.5 683 L 621.5 684 L 629 681.5 L 626 680.5 L 628.5 680 L 632.5 681 L 632.5 680 L 630 679.5 L 646.5 674 L 646.5 675 L 645 675.5 L 647.5 676 L 650 674.5 L 648 673.5 L 649.5 673 L 652.5 674 L 652.5 673 L 651 672.5 L 656.5 670 L 656.5 671 L 655 671.5 L 657.5 672 L 660 670.5 L 658 669.5 L 674.5 661 L 676.5 662 L 677.5 659 L 682.5 656 L 682.5 658 L 685 656.5 Q 682.8 655.3 685.5 654 L 685.5 656 L 688 654.5 Q 685.3 652.8 689.5 651 Q 705.5 641 717 626.5 L 722.5 619 Q 723.8 621.3 725 618.5 L 724.5 617 L 723 617.5 L 728.5 609 L 730 609.5 L 729 607.5 L 732 606.5 L 733 602.5 L 732 600.5 L 734.5 596 L 735.5 598 L 736 595.5 L 735 593.5 L 736 593.5 L 736.5 595 L 740 583.5 L 739 583.5 L 738.5 586 L 738 583.5 L 739.5 580 L 740.5 583 L 741 579.5 L 740 575.5 L 741 575.5 L 741.5 579 L 743 569.5 Q 740.5 568 742 562.5 L 743 562.5 L 743.5 569 L 745 561.5 L 745 545.5 L 746 544.5 L 746 245.5 L 745 244.5 L 745 229.5 L 746 228.5 L 746 215.5 L 747 214.5 L 748 203.5 L 747 200.5 L 748 200.5 L 748.5 203 L 750 197.5 L 749 197.5 L 748.5 199 L 748 197.5 L 749.5 195 L 750.5 197 L 752 193.5 L 750 193.5 L 758.5 183 L 758.5 185 L 761 183.5 Q 758.3 181.8 762.5 180 L 769.5 177 L 769.5 178 L 768 178.5 L 770.5 179 L 777 176.5 L 774 175.5 L 776.5 175 L 781.5 176 L 788.5 174 L 800.5 174 L 801.5 173 L 901 173 L 901 203 L 881.5 203 L 880.5 204 L 865.5 205 L 857 207.5 L 860 208.5 L 857.5 209 L 853.5 208 L 853.5 209 L 856 209.5 L 851.5 211 L 851.5 210 L 853 209.5 L 850.5 209 L 848 210.5 L 850 211.5 L 841.5 216 L 841.5 214 L 839 215.5 L 840 216.5 L 832 224.5 L 830.5 227 L 829 226.5 L 830 228.5 L 828 228.5 L 829 231.5 L 827.5 234 L 826.5 232 L 826 234.5 L 827 237.5 L 825.5 242 L 824.5 238 L 824 242.5 L 825 243.5 L 825 552.5 L 824 552.5 L 823.5 243 L 823 554.5 L 822 555.5 L 821 575.5 L 822 580.5 L 821 580.5 L 820.5 576 L 819 585.5 L 820 585.5 L 820.5 582 L 821 585.5 L 819.5 590 L 818.5 586 L 817 593.5 L 818 593.5 L 818.5 591 L 819 593.5 L 817.5 597 L 816.5 594 L 815 600.5 L 816 602.5 L 815 602.5 L 814.5 601 L 813 605.5 L 814 605.5 L 814.5 604 L 815 605.5 L 811.5 613 L 810.5 611 L 809 615.5 L 810 617.5 L 807.5 621 L 806 620.5 L 807 622.5 L 804 623.5 L 804.5 625 L 806 624.5 L 803.5 628 L 802 627.5 L 803 629.5 Q 791.5 648.5 774.5 662 L 766.5 668 L 766.5 666 L 764 667.5 Q 766.8 669.3 762.5 671 L 757.5 674 L 755.5 673 L 754.5 676 L 752.5 677 L 750.5 676 L 749.5 679 L 732.5 687 L 729.5 686 L 727 687.5 L 729 688.5 L 725.5 690 L 725.5 689 L 727 688.5 L 724.5 688 L 722 689.5 L 724 690.5 L 717.5 693 L 714.5 692 L 714.5 693 L 716 693.5 L 714.5 694 L 711.5 693 L 711.5 694 L 713 694.5 L 711.5 695 L 708.5 694 L 708.5 695 L 710 695.5 L 708.5 696 L 705.5 695 L 705.5 696 L 707 696.5 L 705.5 697 L 701.5 696 L 701.5 697 L 704 697.5 L 698.5 699 L 694.5 698 L 694.5 699 L 697 699.5 L 691.5 701 L 691.5 700 L 694 699.5 L 690.5 699 L 678 702.5 L 682 703.5 L 678.5 704 L 673.5 703 L 663 705.5 L 668 706.5 L 663.5 707 Q 662.3 704.7 657.5 706 L 650.5 708 L 629 710.5 L 636 711.5 L 629.5 712 L 628.5 711 L 619.5 711 L 618.5 712 L 594 713.5 L 607 714.5 L 594.5 715 L 593.5 714 L 573 714 L 573 824.5 L 574.5 831 L 575.5 826 L 576 830.5 L 575 835.5 L 576 835.5 L 576.5 832 Q 578 842 583 848.5 L 581 848.5 L 582.5 851 Q 584.3 848.3 586 852.5 L 590.5 858 Q 598.6 864.9 610 868.5 L 608 869.5 L 616.5 872 L 619.5 871 L 619.5 872 L 617 872.5 L 620.5 873 L 623.5 872 L 623.5 873 L 621 873.5 L 624.5 874 L 628.5 873 L 628.5 874 L 625 874.5 L 629.5 875 L 634.5 874 L 634.5 875 L 630 875.5 L 635.5 876 Q 636.8 873.7 641.5 875 L 641.5 876 L 636 876.5 L 643.5 878 L 653.5 878 L 654.5 879 L 675.5 879 L 676.5 880 L 681.5 879 L 683 880.5 L 683 908 L 394.5 908 L 394 907.5 L 394 880.5 Q 395 878 399.5 879 L 401.5 879 L 422.5 879 L 423.5 878 L 433.5 878 L 441 876.5 L 434 875.5 L 440.5 875 Q 441.7 877.3 446.5 876 L 446.5 875 L 442 874.5 L 446.5 874 L 451.5 875 L 451.5 874 L 448 873.5 L 455.5 872 L 459.5 873 L 459.5 872 L 457 871.5 L 462.5 870 L 466.5 871 L 469 869.5 L 467 868.5 L 468.5 868 L 471.5 869 L 471.5 868 L 470 867.5 Q 485.6 862.1 494.5 850 Q 495.8 852.3 497 849.5 L 496.5 848 L 495 848.5 L 497.5 845 L 499 845.5 L 498 842.5 L 501.5 834 L 502.5 837 L 503 833.5 L 502 828.5 L 503 828.5 L 503.5 833 L 505 827.5 L 505 714 L 482.5 713 Q 480.7 715.8 474.5 714 L 474.5 713 L 482 712.5 L 452.5 709 L 447.5 710 L 447.5 709 L 452 708.5 L 441.5 707 L 436.5 708 L 427 705.5 L 431 704.5 L 426.5 704 L 423.5 705 L 423.5 704 L 426 703.5 L 422.5 703 L 418.5 704 L 411 701.5 L 414 700.5 L 410.5 700 L 407.5 701 L 407.5 700 L 410 699.5 L 403.5 698 L 403.5 699 L 406 699.5 L 403.5 700 L 400 698.5 L 403 697.5 L 396.5 696 L 393.5 697 L 382 692.5 L 384 691.5 L 381.5 691 L 379.5 692 L 379.5 691 L 381 690.5 L 376.5 689 L 376.5 690 L 378 690.5 L 376.5 691 L 374 689.5 L 376 688.5 L 373.5 688 L 371.5 689 L 369 687.5 L 371 686.5 L 368.5 686 L 366.5 687 L 364 685.5 L 366 684.5 L 361.5 683 L 361.5 684 L 363 684.5 L 361.5 685 L 355 681.5 L 357 680.5 L 352.5 679 L 351 679.5 L 351.5 678 L 349.5 679 L 349.5 677 L 347.5 678 L 347.5 676 L 345.5 677 L 345.5 675 L 343.5 676 L 342.5 673 L 339.5 672 L 339.5 674 L 334 670.5 L 334.5 669 L 332.5 670 L 324 664.5 L 324.5 663 L 322.5 664 L 315 658.5 Q 317.3 657.3 314.5 656 L 313 656.5 L 313.5 658 Q 295.3 645.7 281 629.5 L 276 623.5 L 278 623.5 L 276.5 621 L 275.5 622 L 272 618.5 L 268 612.5 L 270 612.5 L 268.5 610 Q 267.3 612.3 266 609.5 L 265 607.5 L 266 605.5 L 263 604.5 L 257 591.5 L 258 588.5 L 257 588.5 L 256.5 590 L 254 583.5 L 255 583.5 L 255.5 585 L 256 582.5 L 254.5 579 L 253.5 582 L 252 576.5 L 253 572.5 L 252 572.5 L 251.5 575 L 251 572.5 L 252 567.5 L 251 567.5 L 250.5 571 L 250 567.5 Q 252.5 566 251 560.5 L 250 559.5 L 250 548.5 L 249 547.5 L 249 226.5 L 247.5 222 L 246.5 226 Q 245.6 217.4 240.5 213 L 223 207.5 L 227 206.5 L 214.5 204 L 204.5 204 L 203.5 203 L 180 203 L 180 174.5 L 180.5 174 L 277.5 174 L 278.5 175 L 287.5 175 L 296.5 177 L 296.5 176 L 294 175.5 L 296.5 175 L 302 177.5 L 300 178.5 L 302.5 179 L 304.5 178 L 308 180.5 Q 305.8 181.8 308.5 183 L 310 182.5 L 309.5 181 L 320 190.5 L 324 199.5 L 323 203.5 L 324 203.5 L 324.5 201 L 326 208.5 Q 323.3 210.3 325 216.5 L 326 217.5 L 326 233.5 L 327 234.5 L 327 562.5 L 328.5 569 L 329.5 564 L 330 568.5 L 329 573.5 L 330 573.5 L 330.5 570 L 331 573.5 L 330 577.5 L 331 577.5 L 331.5 575 L 332 577.5 L 331 581.5 L 332 581.5 L 332.5 579 L 336 589.5 L 335 592.5 L 336 592.5 L 336.5 591 L 339 596.5 L 338 598.5 L 340 598.5 L 339 600.5 L 342 601.5 Q 351.7 621.3 367.5 635 L 379 644.5 Q 376.7 645.8 379.5 647 L 381 646.5 L 380.5 645 L 394 654.5 Q 391.8 655.8 394.5 657 L 396 656.5 L 395.5 655 L 401 658.5 Q 398.8 659.7 401.5 661 L 403 660.5 L 402.5 659 L 415 665.5 L 413 666.5 L 415.5 667 L 417.5 666 L 422 668.5 L 420 669.5 L 424.5 671 L 424.5 670 L 423 669.5 L 424.5 669 L 432 672.5 L 430 673.5 L 432.5 674 L 434.5 673 L 434.5 674 L 433 674.5 L 437.5 676 L 437.5 675 L 436 674.5 L 437.5 674 L 444 676.5 L 441 677.5 L 447.5 679 L 450.5 678 L 454 679.5 L 451 680.5 L 454.5 681 L 457.5 680 L 457.5 681 L 455 681.5 L 466.5 685 L 470.5 685 L 470.5 684 L 467 683.5 L 470.5 683 L 475 684.5 L 471 685.5 L 475.5 686 L 479.5 685 L 479.5 686 L 476 686.5 L 480.5 687 L 485.5 686 L 485.5 687 L 481 687.5 L 486.5 688 L 491.5 687 L 491.5 688 L 487 688.5 L 492.5 689 Q 493.8 686.8 498.5 688 L 498.5 689 L 493 689.5 L 499.5 690 L 503 689 L 503.5 258 L 504 690 L 500 690.5 L 505 691 L 505 257.5 L 503.5 251 L 502.5 257 L 501 247.5 L 502 243.5 L 501 243.5 L 500.5 246 L 497 236.5 L 498 234.5 L 495 233.5 L 492 228.5 L 494 228.5 L 492.5 226 L 491.5 227 L 485.5 221 L 480 217.5 Q 482.3 216.3 479.5 215 L 478 215.5 L 478.5 217 L 474 214.5 L 476 213.5 L 473.5 213 L 471.5 214 L 469 212.5 L 471 211.5 L 468.5 211 L 465.5 212 L 462 210.5 L 465 209.5 L 458.5 208 L 458.5 209 L 461 209.5 L 458.5 210 L 454 208.5 L 458 207.5 L 453.5 207 L 449.5 208 L 449.5 207 L 453 206.5 L 448.5 206 Q 447.2 208.3 442.5 207 L 442.5 206 L 448 205.5 L 441.5 204 L 433.5 204 L 432.5 205 L 423.5 205 L 423.5 204 L 433 203.5 L 421.5 203 L 420.5 202 L 394 202 L 394 173 Z M 298 177 L 298 178 L 300 178 L 298 177 Z M 318 189 L 317 191 L 319 192 L 318 189 Z M 323 197 L 322 200 L 323 200 L 323 197 Z M 325 204 L 324 209 L 325 209 L 325 204 Z M 228 207 L 228 208 L 231 208 L 228 207 Z M 232 208 L 232 209 L 234 209 L 232 208 Z M 616 208 L 616 209 L 619 209 L 616 208 Z M 235 209 L 235 210 L 237 210 L 235 209 Z M 613 209 L 613 210 L 615 210 L 613 209 Z M 466 210 L 466 211 L 468 211 L 466 210 Z M 836 218 L 834 221 L 837 219 L 836 218 Z M 247 219 L 246 222 L 247 222 L 247 219 Z M 826 235 L 825 238 L 826 238 L 826 235 Z M 579 238 L 578 241 L 579 241 L 579 238 Z M 501 240 L 500 243 L 501 243 L 501 240 Z M 578 241 L 577 244 L 578 244 L 578 241 Z M 577 244 L 576 248 L 577 248 L 577 244 Z M 503 247 L 502 251 L 503 251 L 503 247 Z M 254 576 L 253 579 L 254 579 L 254 576 Z M 333 582 L 332 585 L 333 585 L 333 582 Z M 257 585 L 256 588 L 257 588 L 257 585 Z M 334 585 L 333 588 L 334 588 L 334 585 Z M 813 606 L 812 609 L 813 609 L 813 606 Z M 356 623 L 355 625 L 358 627 L 356 623 Z M 283 628 L 282 630 L 284 631 L 283 628 Z M 714 631 L 710 636 L 714 633 L 714 631 Z M 368 636 L 369 638 L 370 638 L 368 636 Z M 707 638 L 705 641 L 708 639 L 707 638 Z M 294 640 L 296 643 L 297 643 L 294 640 Z M 793 641 L 791 644 L 793 643 L 793 641 Z M 375 642 L 376 644 L 377 644 L 375 642 Z M 699 645 L 698 647 L 700 646 L 699 645 Z M 428 672 L 428 673 L 430 673 L 428 672 Z M 439 676 L 439 677 L 441 677 L 439 676 Z M 643 676 L 643 677 L 645 677 L 643 676 Z M 640 677 L 640 678 L 642 678 L 640 677 Z M 637 678 L 637 679 L 639 679 L 637 678 Z M 449 679 L 449 680 L 451 680 L 449 679 Z M 634 679 L 634 680 L 636 680 L 634 679 Z M 614 684 L 614 685 L 617 685 L 614 684 Z M 609 685 L 609 686 L 613 686 L 609 685 Z M 720 690 L 720 691 L 722 691 L 720 690 Z M 385 692 L 385 693 L 387 693 L 385 692 Z M 388 693 L 388 694 L 390 694 L 388 693 Z M 391 694 L 391 695 L 393 695 L 391 694 Z M 394 695 L 394 696 L 396 696 L 394 695 Z M 699 697 L 699 698 L 701 698 L 699 697 Z M 415 701 L 415 702 L 418 702 L 415 701 Z M 419 702 L 419 703 L 422 703 L 419 702 Z M 432 705 L 432 706 L 436 706 L 432 705 Z M 437 706 L 437 707 L 441 707 L 437 706 Z M 577 836 L 576 839 L 577 839 L 577 836 Z M 502 837 L 501 840 L 502 840 L 502 837 Z M 578 839 L 577 842 L 578 842 L 578 839 Z M 494 852 L 491 856 L 494 854 L 494 852 Z M 489 857 L 488 859 L 490 858 L 489 857 Z M 591 859 L 592 861 L 593 861 L 591 859 Z M 606 868 L 606 869 L 608 869 L 606 868 Z M 461 871 L 461 872 L 463 872 L 461 871 Z M 453 873 L 453 874 L 456 874 L 453 873 Z " /><path fill="rgb(254,254,254)" stroke="rgb(254,254,254)" stroke-width="1" opacity="0.9490196078431372" d="M 782.5 173 L 787 173.5 L 782.5 174 L 782.5 173 Z " /><path fill="rgb(254,254,254)" stroke="rgb(254,254,254)" stroke-width="1" opacity="0.9490196078431372" d="M 289.5 174 L 293 174.5 L 289.5 175 L 289.5 174 Z " /><path fill="rgb(254,254,254)" stroke="rgb(254,254,254)" stroke-width="1" opacity="0.9490196078431372" d="M 392.5 174 L 393 200.5 L 392 200.5 L 392.5 174 Z " /><path fill="rgb(254,254,254)" stroke="rgb(254,254,254)" stroke-width="1" opacity="0.9490196078431372" d="M 684.5 174 L 685 200.5 L 684 200.5 L 684.5 174 Z " /><path fill="rgb(254,254,254)" stroke="rgb(254,254,254)" stroke-width="1" opacity="0.9490196078431372" d="M 778.5 174 L 781 174.5 L 778.5 175 L 778.5 174 Z " /><path fill="rgb(254,254,254)" stroke="rgb(254,254,254)" stroke-width="1" opacity="0.9490196078431372" d="M 902.5 174 L 903 201.5 L 902 201.5 L 902.5 174 Z " /><path fill="rgb(254,254,254)" stroke="rgb(254,254,254)" stroke-width="1" opacity="0.9490196078431372" d="M 178.5 175 L 179 201.5 L 178 201.5 L 178.5 175 Z " /><path fill="rgb(254,254,254)" stroke="rgb(254,254,254)" stroke-width="1" opacity="0.9490196078431372" d="M 395.5 203 L 420 203.5 L 395.5 204 L 395.5 203 Z " /><path fill="rgb(254,254,254)" stroke="rgb(254,254,254)" stroke-width="1" opacity="0.9490196078431372" d="M 657.5 203 L 683 203.5 L 657.5 204 L 657.5 203 Z " /><path fill="rgb(254,254,254)" stroke="rgb(254,254,254)" stroke-width="1" opacity="0.9490196078431372" d="M 180.5 204 L 203 204.5 L 180.5 205 L 180.5 204 Z " /><path fill="rgb(254,254,254)" stroke="rgb(254,254,254)" stroke-width="1" opacity="0.9490196078431372" d="M 746.5 204 L 747 206.5 L 746 206.5 L 746.5 204 Z " /><path fill="rgb(254,254,254)" stroke="rgb(254,254,254)" stroke-width="1" opacity="0.9490196078431372" d="M 882.5 204 L 900 204.5 L 882.5 205 L 882.5 204 Z " /><path fill="rgb(254,254,254)" stroke="rgb(254,254,254)" stroke-width="1" opacity="0.9490196078431372" d="M 205.5 205 L 214 205.5 L 205.5 206 L 205.5 205 Z " /><path fill="rgb(254,254,254)" stroke="rgb(254,254,254)" stroke-width="1" opacity="0.9490196078431372" d="M 434.5 205 L 441 205.5 L 434.5 206 L 434.5 205 Z " /><path fill="rgb(254,254,254)" stroke="rgb(254,254,254)" stroke-width="1" opacity="0.9490196078431372" d="M 636.5 205 L 643 205.5 L 636.5 206 L 636.5 205 Z " /><path fill="rgb(254,254,254)" stroke="rgb(254,254,254)" stroke-width="1" opacity="0.9490196078431372" d="M 872.5 205 L 880 205.5 L 872.5 206 L 872.5 205 Z " /><path fill="rgb(254,254,254)" stroke="rgb(254,254,254)" stroke-width="1" opacity="0.9490196078431372" d="M 216.5 206 L 221 206.5 L 216.5 207 L 216.5 206 Z " /><path fill="rgb(254,254,254)" stroke="rgb(254,254,254)" stroke-width="1" opacity="0.9490196078431372" d="M 866.5 206 L 871 206.5 L 866.5 207 L 866.5 206 Z " /><path fill="rgb(254,254,254)" stroke="rgb(254,254,254)" stroke-width="1" opacity="0.9490196078431372" d="M 861.5 207 L 865 207.5 L 861.5 208 L 861.5 207 Z " /><path fill="rgb(254,254,254)" stroke="rgb(254,254,254)" stroke-width="1" opacity="0.9490196078431372" d="M 745.5 208 L 746 213.5 L 745 213.5 L 745.5 208 Z " /><path fill="rgb(254,254,254)" stroke="rgb(254,254,254)" stroke-width="1" opacity="0.9490196078431372" d="M 326.5 210 L 327 215.5 L 326 215.5 L 326.5 210 Z " /><path fill="rgb(254,254,254)" stroke="rgb(254,254,254)" stroke-width="1" opacity="0.9490196078431372" d="M 744.5 215 L 745 226.5 L 744 226.5 L 744.5 215 Z " /><path fill="rgb(254,254,254)" stroke="rgb(254,254,254)" stroke-width="1" opacity="0.9490196078431372" d="M 327.5 218 L 328 230.5 L 327 230.5 L 327.5 218 Z " /><path fill="rgb(254,254,254)" stroke="rgb(254,254,254)" stroke-width="1" opacity="0.9490196078431372" d="M 247.5 227 L 248 234.5 L 247 234.5 L 247.5 227 Z " /><path fill="rgb(254,254,254)" stroke="rgb(254,254,254)" stroke-width="1" opacity="0.9490196078431372" d="M 743.5 234 L 744 239.5 L 743 239.5 L 743.5 234 Z " /><path fill="rgb(254,254,254)" stroke="rgb(254,254,254)" stroke-width="1" opacity="0.9490196078431372" d="M 328.5 237 L 329 545.5 L 328 545.5 L 328.5 237 Z " /><path fill="rgb(254,254,254)" stroke="rgb(254,254,254)" stroke-width="1" opacity="0.9490196078431372" d="M 574.5 262 L 575 689 L 580 689.5 L 574 690 L 574.5 262 Z " /><path fill="rgb(254,254,254)" stroke="rgb(254,254,254)" stroke-width="1" opacity="0.9490196078431372" d="M 743.5 549 L 744 560.5 L 743 560.5 L 743.5 549 Z " /><path fill="rgb(254,254,254)" stroke="rgb(254,254,254)" stroke-width="1" opacity="0.9490196078431372" d="M 248.5 550 L 249 558.5 L 248 558.5 L 248.5 550 Z " /><path fill="rgb(254,254,254)" stroke="rgb(254,254,254)" stroke-width="1" opacity="0.9490196078431372" d="M 328.5 550 L 329 561.5 L 328 561.5 L 328.5 550 Z " /><path fill="rgb(254,254,254)" stroke="rgb(254,254,254)" stroke-width="1" opacity="0.9490196078431372" d="M 823.5 557 L 824 566.5 L 823 566.5 L 823.5 557 Z " /><path fill="rgb(254,254,254)" stroke="rgb(254,254,254)" stroke-width="1" opacity="0.9490196078431372" d="M 249.5 561 L 250 565.5 L 249 565.5 L 249.5 561 Z " /><path fill="rgb(254,254,254)" stroke="rgb(254,254,254)" stroke-width="1" opacity="0.9490196078431372" d="M 822.5 569 L 823 574.5 L 822 574.5 L 822.5 569 Z " /><path fill="rgb(254,254,254)" stroke="rgb(254,254,254)" stroke-width="1" opacity="0.9490196078431372" d="M 741.5 570 L 742 573.5 L 741 573.5 L 741.5 570 Z " /><path fill="rgb(254,254,254)" stroke="rgb(254,254,254)" stroke-width="1" opacity="0.9490196078431372" d="M 459.5 681 L 462 681.5 L 459.5 682 L 459.5 681 Z " /><path fill="rgb(254,254,254)" stroke="rgb(254,254,254)" stroke-width="1" opacity="0.9490196078431372" d="M 622.5 681 L 625 681.5 L 622.5 682 L 622.5 681 Z " /><path fill="rgb(254,254,254)" stroke="rgb(254,254,254)" stroke-width="1" opacity="0.9490196078431372" d="M 463.5 682 L 466 682.5 L 463.5 683 L 463.5 682 Z " /><path fill="rgb(254,254,254)" stroke="rgb(254,254,254)" stroke-width="1" opacity="0.9490196078431372" d="M 618.5 682 L 621 682.5 L 618.5 683 L 618.5 682 Z " /><path fill="rgb(254,254,254)" stroke="rgb(254,254,254)" stroke-width="1" opacity="0.9490196078431372" d="M 597.5 686 L 602 686.5 L 597.5 687 L 597.5 686 Z " /><path fill="rgb(254,254,254)" stroke="rgb(254,254,254)" stroke-width="1" opacity="0.9490196078431372" d="M 687.5 701 L 690 701.5 L 687.5 702 L 687.5 701 Z " /><path fill="rgb(254,254,254)" stroke="rgb(254,254,254)" stroke-width="1" opacity="0.9490196078431372" d="M 683.5 702 L 686 702.5 L 683.5 703 L 683.5 702 Z " /><path fill="rgb(254,254,254)" stroke="rgb(254,254,254)" stroke-width="1" opacity="0.9490196078431372" d="M 674.5 704 L 677 704.5 L 674.5 705 L 674.5 704 Z " /><path fill="rgb(254,254,254)" stroke="rgb(254,254,254)" stroke-width="1" opacity="0.9490196078431372" d="M 669.5 705 L 673 705.5 L 669.5 706 L 669.5 705 Z " /><path fill="rgb(254,254,254)" stroke="rgb(254,254,254)" stroke-width="1" opacity="0.9490196078431372" d="M 658.5 707 L 662 707.5 L 658.5 708 L 658.5 707 Z " /><path fill="rgb(254,254,254)" stroke="rgb(254,254,254)" stroke-width="1" opacity="0.9490196078431372" d="M 442.5 708 L 446 708.5 L 442.5 709 L 442.5 708 Z " /><path fill="rgb(254,254,254)" stroke="rgb(254,254,254)" stroke-width="1" opacity="0.9490196078431372" d="M 652.5 708 L 657 708.5 L 652.5 709 L 652.5 708 Z " /><path fill="rgb(254,254,254)" stroke="rgb(254,254,254)" stroke-width="1" opacity="0.9490196078431372" d="M 645.5 709 L 651 709.5 L 645.5 710 L 645.5 709 Z " /><path fill="rgb(254,254,254)" stroke="rgb(254,254,254)" stroke-width="1" opacity="0.9490196078431372" d="M 453.5 710 L 458 710.5 L 453.5 711 L 453.5 710 Z " /><path fill="rgb(254,254,254)" stroke="rgb(254,254,254)" stroke-width="1" opacity="0.9490196078431372" d="M 638.5 710 L 644 710.5 L 638.5 711 L 638.5 710 Z " /><path fill="rgb(254,254,254)" stroke="rgb(254,254,254)" stroke-width="1" opacity="0.9490196078431372" d="M 459.5 711 L 465 711.5 L 459.5 712 L 459.5 711 Z " /><path fill="rgb(254,254,254)" stroke="rgb(254,254,254)" stroke-width="1" opacity="0.9490196078431372" d="M 466.5 712 L 473 712.5 L 466.5 713 L 466.5 712 Z " /><path fill="rgb(254,254,254)" stroke="rgb(254,254,254)" stroke-width="1" opacity="0.9490196078431372" d="M 620.5 712 L 628 712.5 L 620.5 713 L 620.5 712 Z " /><path fill="rgb(254,254,254)" stroke="rgb(254,254,254)" stroke-width="1" opacity="0.9490196078431372" d="M 609.5 713 L 618 713.5 L 609.5 714 L 609.5 713 Z " /><path fill="rgb(254,254,254)" stroke="rgb(254,254,254)" stroke-width="1" opacity="0.9490196078431372" d="M 484.5 714 L 492 714.5 L 484.5 715 L 484.5 714 Z " /><path fill="rgb(254,254,254)" stroke="rgb(254,254,254)" stroke-width="1" opacity="0.9490196078431372" d="M 494.5 715 L 503.5 715 L 504 715.5 L 504 826.5 L 503 826.5 L 503 716.5 L 502.5 716 L 494.5 716 L 494.5 715 Z " /><path fill="rgb(254,254,254)" stroke="rgb(254,254,254)" stroke-width="1" opacity="0.9490196078431372" d="M 574 715 L 592 715.5 L 575 716 L 574.5 824 L 574 715 Z " /><path fill="rgb(254,254,254)" stroke="rgb(254,254,254)" stroke-width="1" opacity="0.9490196078431372" d="M 424.5 876 L 433 876.5 L 424.5 877 L 424.5 876 Z " /><path fill="rgb(254,254,254)" stroke="rgb(254,254,254)" stroke-width="1" opacity="0.9490196078431372" d="M 644.5 876 L 653 876.5 L 644.5 877 L 644.5 876 Z " /><path fill="rgb(254,254,254)" stroke="rgb(254,254,254)" stroke-width="1" opacity="0.9490196078431372" d="M 405.5 877 L 422 877.5 L 405.5 878 L 405.5 877 Z " /><path fill="rgb(254,254,254)" stroke="rgb(254,254,254)" stroke-width="1" opacity="0.9490196078431372" d="M 655.5 877 L 672 877.5 L 655.5 878 L 655.5 877 Z " /><path fill="rgb(254,254,254)" stroke="rgb(254,254,254)" stroke-width="1" opacity="0.9490196078431372" d="M 392.5 880 L 393 907.5 L 392 907.5 L 392.5 880 Z " /><path fill="rgb(254,254,254)" stroke="rgb(254,254,254)" stroke-width="1" opacity="0.9490196078431372" d="M 684.5 880 L 685 906.5 L 684 906.5 L 684.5 880 Z " /><path fill="rgb(254,254,254)" stroke="rgb(254,254,254)" stroke-width="1" opacity="0.9490196078431372" d="M 394.5 909 L 683 909.5 L 394.5 910 L 394.5 909 Z " /><path fill="rgb(0,0,0)" stroke="rgb(0,0,0)" stroke-width="1" opacity="0" d="M 0 0 L 1080 0 L 1080 1080 L 0 1080 L 0 0 Z M 396 171 L 396 172 L 682 172 L 396 171 Z M 805 171 L 805 172 L 900 172 L 805 171 Z M 182 172 L 182 173 L 274 173 L 182 172 Z M 790 172 L 790 173 L 799 173 L 790 172 Z M 280 173 L 280 174 L 288 174 L 280 173 Z M 394 173 L 394 202 L 421 202 L 422 203 L 433 203 L 434 204 L 448 205 L 471 211 L 486 219 L 496 231 L 502 244 L 505 258 L 505 691 Q 420 682 369 638 Q 353 625 342 607 L 333 588 L 327 563 L 327 235 L 326 234 L 326 218 L 325 217 L 324 205 Q 322 195 317 190 Q 311 183 303 179 L 288 175 L 279 175 L 278 174 L 181 174 L 180 175 L 180 203 L 215 204 L 231 207 L 241 211 L 245 216 L 249 227 L 249 548 L 250 549 L 250 560 L 253 576 L 258 591 Q 268 614 284 631 Q 301 649 324 663 Q 346 678 374 688 L 411 700 L 442 707 L 466 710 L 467 711 L 474 711 L 475 712 L 482 712 L 483 713 L 505 714 L 505 828 L 502 840 L 494 854 L 482 864 L 460 873 L 434 878 L 402 879 L 400 879 Q 395 878 394 881 L 394 908 L 395 908 L 683 908 L 683 881 L 682 879 L 677 880 L 676 879 L 644 878 L 643 877 L 626 875 L 606 869 L 592 861 L 581 850 L 575 836 L 573 825 L 573 714 L 594 714 L 595 713 L 608 713 L 609 712 L 637 710 L 638 709 L 663 706 L 698 698 Q 743 686 775 660 Q 811 631 821 576 L 822 556 L 823 555 L 823 244 Q 826 229 834 220 Q 841 213 851 209 L 866 205 L 881 204 L 882 203 L 901 203 L 901 173 L 802 173 L 801 174 L 789 174 L 769 179 L 759 185 Q 751 192 748 204 L 747 215 L 746 216 L 746 229 L 745 230 L 745 245 L 746 246 L 746 545 L 745 546 L 745 562 L 740 587 L 733 605 Q 725 620 714 633 Q 666 685 573 691 L 573 262 L 576 245 L 584 228 Q 595 213 616 208 L 645 203 L 683 202 L 683 174 L 683 173 L 394 173 Z M 783 173 L 783 174 L 787 174 L 783 173 Z M 290 174 L 290 175 L 293 175 L 290 174 Z M 393 174 L 392 201 L 393 201 L 393 174 Z M 685 174 L 684 201 L 685 201 L 685 174 Z M 779 174 L 779 175 L 781 175 L 779 174 Z M 903 174 L 902 202 L 903 202 L 903 174 Z M 179 175 L 178 202 L 179 202 L 179 175 Z M 295 175 L 295 176 L 297 176 L 295 175 Z M 775 175 L 775 176 L 777 176 L 775 175 Z M 298 176 L 298 177 L 300 177 L 298 176 Z M 324 197 L 323 200 L 324 200 L 324 197 Z M 748 200 L 747 203 L 748 203 L 748 200 Z M 325 201 L 324 204 L 325 204 L 325 201 Z M 396 203 L 396 204 L 420 204 L 396 203 Z M 658 203 L 658 204 L 683 204 L 658 203 Z M 181 204 L 181 205 L 203 205 L 181 204 Z M 326 204 L 325 209 L 326 209 L 326 204 Z M 424 204 L 424 205 L 433 205 L 424 204 Z M 645 204 L 645 205 L 654 205 L 645 204 Z M 747 204 L 746 207 L 747 207 L 747 204 Z M 883 204 L 883 205 L 900 205 L 883 204 Z M 206 205 L 206 206 L 214 206 L 206 205 Z M 435 205 L 435 206 L 441 206 L 435 205 Z M 637 205 L 637 206 L 643 206 L 637 205 Z M 873 205 L 873 206 L 880 206 L 873 205 Z M 217 206 L 217 207 L 221 207 L 217 206 Z M 443 206 L 443 207 L 448 207 L 443 206 Z M 630 206 L 630 207 L 635 207 L 630 206 Z M 867 206 L 867 207 L 871 207 L 867 206 Z M 224 207 L 224 208 L 227 208 L 224 207 Z M 450 207 L 450 208 L 453 208 L 450 207 Z M 625 207 L 625 208 L 628 208 L 625 207 Z M 862 207 L 862 208 L 865 208 L 862 207 Z M 228 208 L 228 209 L 231 209 L 228 208 Z M 455 208 L 455 209 L 458 209 L 455 208 Z M 620 208 L 620 209 L 623 209 L 620 208 Z M 746 208 L 745 214 L 746 214 L 746 208 Z M 858 208 L 858 209 L 860 209 L 858 208 Z M 232 209 L 232 210 L 234 210 L 232 209 Z M 459 209 L 459 210 L 461 210 L 459 209 Z M 616 209 L 616 210 L 619 210 L 616 209 Z M 854 209 L 854 210 L 856 210 L 854 209 Z M 235 210 L 235 211 L 237 211 L 235 210 Z M 327 210 L 326 216 L 327 216 L 327 210 Z M 463 210 L 463 211 L 465 211 L 463 210 Z M 613 210 L 613 211 L 615 211 L 613 210 Z M 466 211 L 466 212 L 468 212 L 466 211 Z M 745 215 L 744 227 L 745 227 L 745 215 Z M 328 218 L 327 231 L 328 231 L 328 218 Z M 246 219 L 245 222 L 246 222 L 246 219 Z M 247 222 L 246 226 L 247 226 L 247 222 Z M 248 227 L 247 235 L 248 235 L 248 227 Z M 744 234 L 743 240 L 744 240 L 744 234 Z M 827 235 L 826 238 L 827 238 L 827 235 Z M 329 237 L 328 546 L 329 546 L 329 237 Z M 580 238 L 579 241 L 580 241 L 580 238 Z M 826 238 L 825 242 L 826 242 L 826 238 Z M 500 240 L 499 243 L 500 243 L 500 240 Z M 579 241 L 578 244 L 579 244 L 579 241 Z M 501 243 L 500 246 L 501 246 L 501 243 Z M 825 243 L 824 553 L 825 553 L 825 243 Z M 578 244 L 577 248 L 578 248 L 578 244 Z M 502 247 L 501 251 L 502 251 L 502 247 Z M 577 248 L 576 252 L 577 252 L 577 248 Z M 503 251 L 502 257 L 503 257 L 503 251 Z M 576 253 L 575 260 L 576 260 L 576 253 Z M 504 258 L 503 689 L 500 690 L 504 690 L 504 258 Z M 575 262 L 574 690 L 580 690 L 575 689 L 575 262 Z M 744 549 L 743 561 L 744 561 L 744 549 Z M 249 550 L 248 559 L 249 559 L 249 550 Z M 329 550 L 328 562 L 329 562 L 329 550 Z M 824 557 L 823 567 L 824 567 L 824 557 Z M 250 561 L 249 566 L 250 566 L 250 561 Z M 743 562 L 742 569 L 743 569 L 743 562 Z M 330 564 L 329 569 L 330 569 L 330 564 Z M 251 567 L 250 571 L 251 571 L 251 567 Z M 823 569 L 822 575 L 823 575 L 823 569 Z M 331 570 L 330 574 L 331 574 L 331 570 Z M 742 570 L 741 574 L 742 574 L 742 570 Z M 252 572 L 251 575 L 252 575 L 252 572 Z M 332 575 L 331 578 L 332 578 L 332 575 Z M 741 575 L 740 579 L 741 579 L 741 575 Z M 253 576 L 252 579 L 253 579 L 253 576 Z M 822 576 L 821 581 L 822 581 L 822 576 Z M 254 579 L 253 582 L 254 582 L 254 579 Z M 333 579 L 332 582 L 333 582 L 333 579 Z M 740 580 L 739 583 L 740 583 L 740 580 Z M 334 582 L 333 585 L 334 585 L 334 582 Z M 821 582 L 820 586 L 821 586 L 821 582 Z M 739 583 L 738 586 L 739 586 L 739 583 Z M 256 585 L 255 588 L 256 588 L 256 585 Z M 335 585 L 334 588 L 335 588 L 335 585 Z M 820 586 L 819 590 L 820 590 L 820 586 Z M 819 591 L 818 594 L 819 594 L 819 591 Z M 818 594 L 817 597 L 818 597 L 818 594 Z M 814 606 L 813 609 L 814 609 L 814 606 Z M 710 634 L 707 638 L 710 636 L 710 634 Z M 428 671 L 428 672 L 430 672 L 428 671 Z M 439 675 L 439 676 L 441 676 L 439 675 Z M 643 675 L 643 676 L 645 676 L 643 675 Z M 442 676 L 442 677 L 444 677 L 442 676 Z M 640 676 L 640 677 L 642 677 L 640 676 Z M 637 677 L 637 678 L 639 678 L 637 677 Z M 449 678 L 449 679 L 451 679 L 449 678 Z M 634 678 L 634 679 L 636 679 L 634 678 Z M 452 679 L 452 680 L 454 680 L 452 679 Z M 631 679 L 631 680 L 633 680 L 631 679 Z M 456 680 L 456 681 L 458 681 L 456 680 Z M 627 680 L 627 681 L 629 681 L 627 680 Z M 460 681 L 460 682 L 462 682 L 460 681 Z M 623 681 L 623 682 L 625 682 L 623 681 Z M 464 682 L 464 683 L 466 683 L 464 682 Z M 619 682 L 619 683 L 621 683 L 619 682 Z M 468 683 L 468 684 L 471 684 L 468 683 Z M 614 683 L 614 684 L 617 684 L 614 683 Z M 472 684 L 472 685 L 475 685 L 472 684 Z M 609 684 L 609 685 L 613 685 L 609 684 Z M 477 685 L 477 686 L 480 686 L 477 685 Z M 604 685 L 604 686 L 608 686 L 604 685 Z M 482 686 L 482 687 L 486 687 L 482 686 Z M 598 686 L 598 687 L 602 687 L 598 686 Z M 488 687 L 488 688 L 492 688 L 488 687 Z M 591 687 L 591 688 L 596 688 L 591 687 Z M 494 688 L 494 689 L 499 689 L 494 688 Z M 583 688 L 583 689 L 589 689 L 583 688 Z M 720 691 L 720 692 L 722 692 L 720 691 Z M 385 693 L 385 694 L 387 694 L 385 693 Z M 388 694 L 388 695 L 390 695 L 388 694 Z M 391 695 L 391 696 L 393 696 L 391 695 Z M 394 696 L 394 697 L 396 697 L 394 696 Z M 702 697 L 702 698 L 704 698 L 702 697 Z M 401 698 L 401 699 L 403 699 L 401 698 Z M 699 698 L 699 699 L 701 699 L 699 698 Z M 404 699 L 404 700 L 406 700 L 404 699 Z M 695 699 L 695 700 L 697 700 L 695 699 Z M 408 700 L 408 701 L 410 701 L 408 700 Z M 692 700 L 692 701 L 694 701 L 692 700 Z M 412 701 L 412 702 L 414 702 L 412 701 Z M 688 701 L 688 702 L 690 702 L 688 701 Z M 415 702 L 415 703 L 418 703 L 415 702 Z M 684 702 L 684 703 L 686 703 L 684 702 Z M 419 703 L 419 704 L 422 704 L 419 703 Z M 679 703 L 679 704 L 682 704 L 679 703 Z M 424 704 L 424 705 L 426 705 L 424 704 Z M 675 704 L 675 705 L 677 705 L 675 704 Z M 428 705 L 428 706 L 431 706 L 428 705 Z M 670 705 L 670 706 L 673 706 L 670 705 Z M 432 706 L 432 707 L 436 707 L 432 706 Z M 664 706 L 664 707 L 668 707 L 664 706 Z M 437 707 L 437 708 L 441 708 L 437 707 Z M 659 707 L 659 708 L 662 708 L 659 707 Z M 443 708 L 443 709 L 446 709 L 443 708 Z M 653 708 L 653 709 L 657 709 L 653 708 Z M 448 709 L 448 710 L 452 710 L 448 709 Z M 646 709 L 646 710 L 651 710 L 646 709 Z M 454 710 L 454 711 L 458 711 L 454 710 Z M 639 710 L 639 711 L 644 711 L 639 710 Z M 460 711 L 460 712 L 465 712 L 460 711 Z M 630 711 L 630 712 L 636 712 L 630 711 Z M 467 712 L 467 713 L 473 713 L 467 712 Z M 621 712 L 621 713 L 628 713 L 621 712 Z M 475 713 L 475 714 L 482 714 L 475 713 Z M 610 713 L 610 714 L 618 714 L 610 713 Z M 485 714 L 485 715 L 492 715 L 485 714 Z M 595 714 L 595 715 L 607 715 L 595 714 Z M 495 715 L 495 716 L 503 716 L 503 717 L 503 827 L 504 827 L 504 716 L 504 715 L 495 715 Z M 574 715 L 575 824 L 575 716 L 592 716 L 574 715 Z M 576 826 L 575 831 L 576 831 L 576 826 Z M 503 828 L 502 833 L 503 833 L 503 828 Z M 577 832 L 576 836 L 577 836 L 577 832 Z M 502 834 L 501 837 L 502 837 L 502 834 Z M 578 836 L 577 839 L 578 839 L 578 836 Z M 501 837 L 500 840 L 501 840 L 501 837 Z M 579 839 L 578 842 L 579 842 L 579 839 Z M 491 854 L 489 857 L 491 856 L 491 854 Z M 606 867 L 606 868 L 608 868 L 606 867 Z M 461 870 L 461 871 L 463 871 L 461 870 Z M 458 871 L 458 872 L 460 872 L 458 871 Z M 618 871 L 618 872 L 620 872 L 618 871 Z M 453 872 L 453 873 L 456 873 L 453 872 Z M 622 872 L 622 873 L 624 873 L 622 872 Z M 449 873 L 449 874 L 452 874 L 449 873 Z M 626 873 L 626 874 L 629 874 L 626 873 Z M 443 874 L 443 875 L 447 875 L 443 874 Z M 631 874 L 631 875 L 635 875 L 631 874 Z M 435 875 L 435 876 L 441 876 L 435 875 Z M 637 875 L 637 876 L 642 876 L 637 875 Z M 425 876 L 425 877 L 433 877 L 425 876 Z M 645 876 L 645 877 L 653 877 L 645 876 Z M 406 877 L 406 878 L 422 878 L 406 877 Z M 656 877 L 656 878 L 672 878 L 656 877 Z M 393 880 L 392 908 L 393 908 L 393 880 Z M 685 880 L 684 907 L 685 907 L 685 880 Z M 395 909 L 395 910 L 683 910 L 395 909 Z " /></svg>